<svg xmlns="http://www.w3.org/2000/svg" viewBox="0 0 1200 750" fill="none">
  <rect width="1200" height="750" fill="#fafafa"/>
  <rect x="0" y="0" width="1200" height="56" fill="#ffffff" stroke="#e5e5e5"/>
  <circle cx="36" cy="28" r="8" fill="#e5e5e5"/><circle cx="64" cy="28" r="8" fill="#e5e5e5"/><circle cx="92" cy="28" r="8" fill="#e5e5e5"/>
  <rect x="200" y="18" width="800" height="20" rx="10" fill="#f0f0f0"/>
  <rect x="80" y="120" width="480" height="32" rx="4" fill="#171717"/>
  <rect x="80" y="180" width="360" height="16" rx="4" fill="#d4d4d4"/>
  <rect x="80" y="210" width="300" height="16" rx="4" fill="#e5e5e5"/>
  <rect x="80" y="280" width="140" height="44" rx="22" fill="#171717"/>
  <rect x="640" y="100" width="480" height="320" rx="16" fill="#ebebeb"/>
  <rect x="80" y="400" width="1040" height="1" fill="#e5e5e5"/>
  <rect x="80" y="460" width="320" height="200" rx="12" fill="#f5f5f5" stroke="#e5e5e5"/>
  <rect x="440" y="460" width="320" height="200" rx="12" fill="#f5f5f5" stroke="#e5e5e5"/>
  <rect x="800" y="460" width="320" height="200" rx="12" fill="#f5f5f5" stroke="#e5e5e5"/>
</svg>
